<svg width="24" height="24" viewBox="0 0 24 24" fill="none" xmlns="http://www.w3.org/2000/svg">
<path d="M12.5597 16.6695L20.7792 8.45002L19.8185 7.48927L11.599 15.7088L12.5597 16.6695ZM2.95747 15.2893C2.95747 15.6689 3.11239 15.9708 3.42222 16.195C3.73206 16.4193 4.22789 16.5732 4.90972 16.6565C5.24239 16.6993 5.50439 16.8532 5.69572 17.118C5.88689 17.3828 5.97414 17.6816 5.95747 18.0143C5.94081 18.3634 5.81731 18.6533 5.58697 18.8838C5.35647 19.1141 5.07497 19.2079 4.74247 19.1653C3.28881 18.9798 2.20981 18.5663 1.50547 17.925C0.801141 17.2837 0.448975 16.4003 0.448975 15.275C0.448975 14.154 0.890058 13.2418 1.77222 12.5385C2.65439 11.8353 3.90606 11.3888 5.52723 11.199C6.23373 11.1113 6.73064 11.0072 7.01797 10.8865C7.30531 10.7658 7.44897 10.5921 7.44897 10.3653C7.44897 10.0739 7.28339 9.83827 6.95222 9.65827C6.62106 9.4781 6.10256 9.32968 5.39672 9.21302C5.06406 9.16085 4.80206 9.00052 4.61072 8.73202C4.41956 8.46352 4.34064 8.16301 4.37397 7.83051C4.40731 7.48118 4.55223 7.19785 4.80872 6.98051C5.06522 6.76301 5.35981 6.68035 5.69247 6.73251C7.12281 6.97018 8.19123 7.38818 8.89773 7.98652C9.60423 8.58468 9.95747 9.3776 9.95747 10.3653C9.95747 11.2674 9.61781 11.9991 8.93848 12.5603C8.25914 13.1216 7.26156 13.4899 5.94572 13.6653C4.95439 13.7958 4.20856 13.9963 3.70822 14.2668C3.20772 14.5374 2.95747 14.8783 2.95747 15.2893ZM13.176 19.613L8.65547 15.0925L18.375 5.37276C18.7836 4.9641 19.269 4.75977 19.831 4.75977C20.393 4.75977 20.8783 4.9641 21.287 5.37276L22.8957 6.98152C23.3044 7.39018 23.5087 7.87785 23.5087 8.44452C23.5087 9.01118 23.3044 9.49885 22.8957 9.90752L13.176 19.613ZM9.11623 20.4523C8.73873 20.5283 8.40864 20.425 8.12598 20.1425C7.84348 19.8598 7.74022 19.5298 7.81622 19.1523L8.65547 15.0925L13.176 19.613L9.11623 20.4523Z" fill="currentColor" />
</svg>
