<svg width="24" height="24" viewBox="0 0 24 24" fill="none" xmlns="http://www.w3.org/2000/svg">
<path d="M18.7349 15.8912C18.7349 17.7471 18.0606 19.3092 16.7121 20.5777C15.3636 21.8462 13.752 22.4805 11.8774 22.4805C10.0027 22.4805 8.39577 21.8462 7.0566 20.5777C5.71744 19.3092 5.04785 17.7471 5.04785 15.8912V6.33047C5.04785 4.9768 5.53718 3.83655 6.51585 2.90972C7.49452 1.98289 8.6701 1.51947 10.0426 1.51947C11.4149 1.51947 12.5858 1.98289 13.5551 2.90972C14.5243 3.83655 15.0089 4.9768 15.0089 6.33047V15.3772C15.0089 16.2286 14.7021 16.9468 14.0886 17.532C13.4753 18.1171 12.7382 18.4097 11.8774 18.4097C11.0164 18.4097 10.2839 18.1171 9.6801 17.532C9.0761 16.9468 8.7741 16.2286 8.7741 15.3772V7.38147C8.7741 7.03214 8.89577 6.7358 9.1391 6.49247C9.3826 6.24897 9.67902 6.12722 10.0284 6.12722C10.3777 6.12722 10.6741 6.24897 10.9176 6.49247C11.1609 6.7358 11.2826 7.03214 11.2826 7.38147V15.3772C11.2826 15.5374 11.3394 15.6671 11.4529 15.7662C11.5662 15.8656 11.7077 15.9152 11.8774 15.9152C12.0469 15.9152 12.193 15.8679 12.3159 15.7732C12.4387 15.6787 12.5001 15.5467 12.5001 15.3772V6.34447C12.4929 5.68214 12.2494 5.12814 11.7696 4.68247C11.2899 4.23697 10.7143 4.01422 10.0426 4.01422C9.37077 4.01422 8.78852 4.23464 8.29585 4.67547C7.80302 5.11647 7.5566 5.66814 7.5566 6.33047V15.8912C7.54944 17.0557 7.97427 18.0293 8.8311 18.812C9.68793 19.5945 10.708 19.9857 11.8914 19.9857C13.0675 19.9857 14.0804 19.5945 14.9301 18.812C15.7796 18.0293 16.2116 17.0557 16.2261 15.8912V6.84447C16.2261 6.4953 16.3479 6.19897 16.5914 5.95547C16.8349 5.71197 17.1313 5.59022 17.4806 5.59022C17.8299 5.59022 18.1263 5.71197 18.3696 5.95547C18.6131 6.19897 18.7349 6.4953 18.7349 6.84447V15.8912Z" fill="currentColor"/>
</svg>
