<svg width="24" height="24" viewBox="0 0 24 24" fill="none" xmlns="http://www.w3.org/2000/svg">
<path d="M12 22.4695C11.3528 22.4695 10.7278 22.3982 10.125 22.2555C9.52213 22.1127 8.91088 21.8877 8.29122 21.5805C7.47022 21.9537 6.70788 22.1915 6.00422 22.294C5.30072 22.3965 4.55255 22.455 3.75972 22.4695C3.41038 22.4768 3.11638 22.3587 2.87772 22.1152C2.63888 21.8717 2.51947 21.5753 2.51947 21.226C2.51947 20.8768 2.63888 20.5805 2.87772 20.337C3.11638 20.0935 3.41038 19.9681 3.75972 19.9608C4.15038 19.9536 4.51888 19.9381 4.86522 19.9143C5.21155 19.8903 5.55372 19.8431 5.89172 19.7728C6.22988 19.7026 6.56922 19.6068 6.90972 19.4853C7.25038 19.3639 7.60655 19.2057 7.97822 19.0107C8.08038 18.9492 8.1873 18.9185 8.29896 18.9185C8.41046 18.9185 8.5173 18.9492 8.61946 19.0107C9.1318 19.3036 9.6548 19.5323 10.1885 19.6968C10.7223 19.8612 11.3261 19.9435 12 19.9435C12.6738 19.9435 13.2752 19.8612 13.8042 19.6968C14.3332 19.5323 14.8539 19.3036 15.3662 19.0107C15.4684 18.9492 15.5753 18.9185 15.687 18.9185C15.7985 18.9185 15.9053 18.9492 16.0075 19.0107C16.3793 19.2057 16.7379 19.3639 17.0832 19.4853C17.4284 19.6068 17.7676 19.7026 18.101 19.7728C18.4343 19.8431 18.7784 19.8903 19.1332 19.9143C19.4879 19.9381 19.8521 19.9536 20.226 19.9608C20.5753 19.9681 20.8717 20.0935 21.1152 20.337C21.3587 20.5805 21.4805 20.8768 21.4805 21.226C21.4805 21.5753 21.3587 21.8717 21.1152 22.1152C20.8717 22.3587 20.5753 22.4768 20.226 22.4695C19.4333 22.455 18.6875 22.3965 17.9885 22.294C17.2896 22.1915 16.5333 21.9537 15.7195 21.5805C15.1 21.8877 14.487 22.1127 13.8805 22.2555C13.274 22.3982 12.6471 22.4695 12 22.4695ZM6.87272 6.02825V9.16425L11.2597 7.8935C11.5017 7.81517 11.7485 7.776 12 7.776C12.2515 7.776 12.4982 7.81042 12.7402 7.87925L17.1272 9.15V6.02825H6.87272ZM12 18.226C11.1506 18.226 10.3675 18.0105 9.65046 17.5795C8.93346 17.1483 8.45247 16.8102 8.20747 16.5652C7.82497 16.9124 7.40038 17.2044 6.93372 17.4413C6.46705 17.6783 5.96197 17.8602 5.41847 17.987C5.00763 18.0827 4.6268 18.0071 4.27596 17.7603C3.9253 17.5136 3.69521 17.1812 3.58571 16.763L2.23147 11.8338C2.13863 11.4844 2.18013 11.1578 2.35597 10.8538C2.53163 10.5498 2.79413 10.342 3.14347 10.2305L4.36397 9.887V6.1695C4.36397 5.43117 4.62105 4.80492 5.13522 4.29075C5.64938 3.77658 6.27572 3.5195 7.01422 3.5195H8.75097V2.8445C8.75097 2.4765 8.8798 2.16367 9.13747 1.906C9.39513 1.64833 9.70797 1.5195 10.076 1.5195H13.924C14.292 1.5195 14.6048 1.64833 14.8625 1.906C15.1201 2.16367 15.249 2.4765 15.249 2.8445V3.5195H16.9857C17.7242 3.5195 18.3505 3.77658 18.8647 4.29075C19.3789 4.80492 19.636 5.43117 19.636 6.1695V9.887L20.8565 10.2305C21.2058 10.342 21.4683 10.5498 21.644 10.8538C21.8198 11.1578 21.8613 11.4844 21.7685 11.8338L20.4142 16.763C20.3047 17.1812 20.0746 17.5089 19.724 17.7463C19.3731 17.9836 18.9923 18.0638 18.5815 17.987C18.0308 17.8602 17.5221 17.6783 17.0555 17.4413C16.5888 17.2044 16.1678 16.9124 15.7925 16.5652C15.5475 16.8102 15.0665 17.1483 14.3495 17.5795C13.6325 18.0105 12.8493 18.226 12 18.226Z" fill="currentColor"/>
</svg>
