<svg width="24" height="24" viewBox="0 0 24 24" fill="none" xmlns="http://www.w3.org/2000/svg">
<path d="M8.04253 19.7773V20.0228C8.04253 20.5101 7.87195 20.9243 7.53078 21.2655C7.18962 21.6067 6.77536 21.7773 6.28803 21.7773C5.80536 21.7773 5.38995 21.6032 5.04178 21.255C4.69361 20.9068 4.51953 20.4914 4.51953 20.0088V18.4305C4.21953 18.0672 3.97786 17.6629 3.79453 17.2178C3.6112 16.7726 3.51953 16.2989 3.51953 15.7968V6.12726C3.51953 4.58376 4.20128 3.45109 5.56478 2.72926C6.92811 2.00759 9.0752 1.64676 12.006 1.64676C15.0427 1.64676 17.2143 1.99209 18.5208 2.68276C19.8273 3.37359 20.4805 4.52176 20.4805 6.12726V15.7968C20.4805 16.2989 20.3889 16.7726 20.2055 17.2178C20.0222 17.6629 19.7805 18.0672 19.4805 18.4305V20.0228C19.4805 20.5101 19.3099 20.9243 18.9688 21.2655C18.6276 21.6067 18.2134 21.7773 17.726 21.7773C17.2435 21.7773 16.8282 21.6032 16.48 21.255C16.1317 20.9068 15.9575 20.4914 15.9575 20.0088V19.7773H8.04253ZM6.16953 10.2968H17.8305V7.29676H6.16953V10.2968ZM8.58478 16.212C9.00145 16.212 9.35562 16.0662 9.64728 15.7745C9.93895 15.4828 10.0848 15.1287 10.0848 14.712C10.0848 14.2953 9.93895 13.9412 9.64728 13.6495C9.35562 13.3578 9.00145 13.212 8.58478 13.212C8.16812 13.212 7.81395 13.3578 7.52228 13.6495C7.23061 13.9412 7.08478 14.2953 7.08478 14.712C7.08478 15.1287 7.23061 15.4828 7.52228 15.7745C7.81395 16.0662 8.16812 16.212 8.58478 16.212ZM15.4153 16.212C15.8319 16.212 16.1861 16.0662 16.4778 15.7745C16.7694 15.4828 16.9153 15.1287 16.9153 14.712C16.9153 14.2953 16.7694 13.9412 16.4778 13.6495C16.1861 13.3578 15.8319 13.212 15.4153 13.212C14.9986 13.212 14.6444 13.3578 14.3528 13.6495C14.0611 13.9412 13.9153 14.2953 13.9153 14.712C13.9153 15.1287 14.0611 15.4828 14.3528 15.7745C14.6444 16.0662 14.9986 16.212 15.4153 16.212Z" fill="currentColor" />
</svg>
