<svg width="24" height="24" viewBox="0 0 24 24" fill="none" xmlns="http://www.w3.org/2000/svg">
<path d="M11.9999 13.8663L9.72165 16.1305C9.47232 16.3797 9.16599 16.5067 8.80265 16.5115C8.43915 16.5162 8.12807 16.3892 7.86941 16.1305C7.62024 15.8812 7.49565 15.5724 7.49565 15.2043C7.49565 14.8363 7.62024 14.5276 7.86941 14.2783L10.1337 12L7.86941 9.74675C7.62024 9.49742 7.49324 9.19108 7.48841 8.82775C7.48374 8.46425 7.61074 8.15317 7.86941 7.8945C8.11874 7.64534 8.42749 7.52075 8.79565 7.52075C9.16365 7.52075 9.47232 7.64534 9.72165 7.8945L11.9999 10.1588L14.2532 7.8945C14.5025 7.64534 14.8112 7.52075 15.1792 7.52075C15.5473 7.52075 15.8561 7.64534 16.1054 7.8945C16.3619 8.151 16.4902 8.4615 16.4902 8.826C16.4902 9.1905 16.3619 9.49742 16.1054 9.74675L13.8412 12L16.1054 14.2783C16.3546 14.5276 16.4792 14.8363 16.4792 15.2043C16.4792 15.5724 16.3546 15.8812 16.1054 16.1305C15.8489 16.387 15.5384 16.5153 15.1739 16.5153C14.8094 16.5153 14.5025 16.387 14.2532 16.1305L11.9999 13.8663Z" fill="currentColor" />
</svg>
