<svg width="24" height="24" viewBox="0 0 24 24" fill="none" xmlns="http://www.w3.org/2000/svg">
<path d="M2.40323 20.226L6.34773 9.20325C6.45939 8.92058 6.63098 8.70208 6.86248 8.54775C7.09398 8.39342 7.34273 8.31625 7.60873 8.31625C7.77973 8.31625 7.94239 8.346 8.09673 8.4055C8.25106 8.46483 8.39706 8.56333 8.53473 8.701L15.638 15.8043C15.7756 15.9419 15.8742 16.088 15.9337 16.2425C15.9931 16.3968 16.0227 16.5595 16.0227 16.7305C16.0227 16.9963 15.9456 17.2427 15.7912 17.4695C15.6369 17.6963 15.4185 17.8656 15.136 17.9773L4.09898 21.9218C3.82348 22.0239 3.56581 22.0388 3.32598 21.9663C3.08614 21.8939 2.88073 21.7722 2.70973 21.601C2.53873 21.43 2.41931 21.2246 2.35148 20.9848C2.28381 20.7449 2.30106 20.492 2.40323 20.226ZM23.3782 7.43475C23.2189 7.59425 23.0298 7.674 22.811 7.674C22.592 7.674 22.4028 7.59425 22.2435 7.43475L22.211 7.40225C21.9776 7.16892 21.686 7.05225 21.336 7.05225C20.986 7.05225 20.6943 7.16892 20.461 7.40225L15.725 12.138C15.5468 12.3163 15.3388 12.4032 15.101 12.3985C14.8633 12.3937 14.6554 12.3022 14.4772 12.124C14.2989 11.9457 14.2097 11.7353 14.2097 11.493C14.2097 11.2505 14.2989 11.0402 14.4772 10.862L19.199 6.14025C19.7888 5.55042 20.5035 5.2555 21.343 5.2555C22.1825 5.2555 22.8971 5.55042 23.487 6.14025L23.5195 6.17275C23.679 6.33225 23.7516 6.52608 23.7375 6.75425C23.7233 6.98258 23.6036 7.20942 23.3782 7.43475ZM9.93248 3.5305C10.1013 3.36166 10.2999 3.27725 10.5282 3.27725C10.7566 3.27725 10.9551 3.36166 11.124 3.5305L11.1782 3.58475C11.7681 4.17458 12.063 4.88092 12.063 5.70375C12.063 6.52658 11.7681 7.23291 11.1782 7.82275L11.1457 7.8555C11.0051 7.996 10.8301 8.05217 10.6207 8.024C10.4112 7.99567 10.1656 7.83583 9.88373 7.5445C9.74306 7.404 9.67273 7.24317 9.67273 7.062C9.67273 6.88083 9.74306 6.71991 9.88373 6.57925L9.91623 6.54675C10.1496 6.31342 10.2662 6.03008 10.2662 5.69675C10.2662 5.36342 10.1496 5.08008 9.91623 4.84675L9.86198 4.7925C9.69314 4.6235 9.61339 4.42017 9.62273 4.1825C9.63223 3.94483 9.73548 3.7275 9.93248 3.5305ZM14.0815 1.8695C14.2598 1.69133 14.4725 1.60458 14.7195 1.60925C14.9666 1.61392 15.1793 1.70541 15.3575 1.88375L16.3195 2.84575C16.9093 3.43558 17.2042 4.14783 17.2042 4.9825C17.2042 5.81733 16.9093 6.52967 16.3195 7.1195L13.513 9.926C13.3348 10.1043 13.1245 10.1935 12.882 10.1935C12.6396 10.1935 12.4293 10.1043 12.251 9.926C12.0728 9.74783 11.9837 9.53517 11.9837 9.288C11.9837 9.041 12.0728 8.82833 12.251 8.65L15.0435 5.8575C15.2768 5.62417 15.3935 5.3325 15.3935 4.9825C15.3935 4.6325 15.2768 4.34083 15.0435 4.1075L14.0815 3.14575C13.9033 2.96742 13.8142 2.75467 13.8142 2.5075C13.8142 2.2605 13.9033 2.04783 14.0815 1.8695ZM22.8162 14.4347C22.6381 14.6131 22.4254 14.7023 22.1782 14.7023C21.9312 14.7023 21.7186 14.6131 21.5402 14.4347L20.5782 13.4727C20.3449 13.2394 20.0532 13.1227 19.7032 13.1227C19.3532 13.1227 19.0616 13.2394 18.8282 13.4727L17.9512 14.35C17.7729 14.5283 17.5601 14.6175 17.313 14.6175C17.066 14.6175 16.8533 14.5283 16.675 14.35C16.4968 14.1717 16.4101 13.959 16.4147 13.712C16.4194 13.4648 16.5109 13.2522 16.6892 13.074L17.5662 12.1967C18.1561 11.6069 18.8707 11.312 19.7102 11.312C20.5497 11.312 21.2645 11.6069 21.8545 12.1967L22.8162 13.1587C22.9946 13.3369 23.0837 13.5496 23.0837 13.7967C23.0837 14.0439 22.9946 14.2566 22.8162 14.4347Z" fill="currentColor" />
</svg>
