<svg width="24" height="24" viewBox="0 0 24 24" fill="none" xmlns="http://www.w3.org/2000/svg">
<path d="M5.16953 21.4805C4.4312 21.4805 3.80495 21.2234 3.29078 20.7092C2.77661 20.1951 2.51953 19.5688 2.51953 18.8305V5.1695C2.51953 4.43117 2.77661 3.80492 3.29078 3.29075C3.80495 2.77658 4.4312 2.5195 5.16953 2.5195H18.8305C19.5689 2.5195 20.1951 2.77658 20.7093 3.29075C21.2234 3.80492 21.4805 4.43117 21.4805 5.1695V18.8305C21.4805 19.5688 21.2234 20.1951 20.7093 20.7092C20.1951 21.2234 19.5689 21.4805 18.8305 21.4805H5.16953ZM5.16953 18.8305H18.8305V5.1695H5.16953V18.8305Z" fill="currentColor"/>
</svg>
