<svg width="21" height="20" viewBox="0 0 21 20" fill="none" xmlns="http://www.w3.org/2000/svg">
<path d="M9.29788 10.8017L7.8008 9.31607C7.6008 9.11621 7.3533 9.01822 7.0583 9.02211C6.76344 9.02614 6.51601 9.12808 6.31601 9.32794C6.11615 9.5278 6.01621 9.77329 6.01621 10.0644C6.01621 10.3554 6.11615 10.6009 6.31601 10.8009L8.51455 13.0109C8.73608 13.2325 8.99719 13.3434 9.29788 13.3434C9.59871 13.3434 9.8599 13.2325 10.0814 13.0109L14.6131 8.46753C14.8131 8.26753 14.9111 8.02003 14.907 7.72503C14.9032 7.43016 14.8013 7.18273 14.6014 6.98273C14.4016 6.78287 14.1561 6.68294 13.865 6.68294C13.5739 6.68294 13.3284 6.78287 13.1285 6.98273L9.29788 10.8017ZM4.80788 17.9004C4.1926 17.9004 3.67073 17.6862 3.24226 17.2577C2.81378 16.8293 2.59955 16.3074 2.59955 15.6921V4.30794C2.59955 3.69266 2.81378 3.17079 3.24226 2.74232C3.67073 2.31384 4.1926 2.09961 4.80788 2.09961H16.192C16.8073 2.09961 17.3292 2.31384 17.7577 2.74232C18.1861 3.17079 18.4004 3.69266 18.4004 4.30794V15.6921C18.4004 16.3074 18.1861 16.8293 17.7577 17.2577C17.3292 17.6862 16.8073 17.9004 16.192 17.9004H4.80788Z" fill="#404040"/>
</svg>
