<svg width="24" height="24" viewBox="0 0 24 24" fill="none" xmlns="http://www.w3.org/2000/svg">
<path d="M10.5575 12.962L8.76103 11.1792C8.52103 10.9394 8.22403 10.8218 7.87003 10.8265C7.5162 10.8313 7.21928 10.9537 6.97928 11.1935C6.73945 11.4333 6.61953 11.7279 6.61953 12.0773C6.61953 12.4264 6.73945 12.721 6.97928 12.961L9.61753 15.613C9.88337 15.879 10.1967 16.012 10.5575 16.012C10.9185 16.012 11.2319 15.879 11.4978 15.613L16.9358 10.161C17.1758 9.921 17.2934 9.624 17.2885 9.27C17.2839 8.91617 17.1616 8.61925 16.9218 8.37925C16.6819 8.13942 16.3874 8.0195 16.038 8.0195C15.6887 8.0195 15.3941 8.13942 15.1543 8.37925L10.5575 12.962ZM5.16953 21.4805C4.4312 21.4805 3.80495 21.2234 3.29078 20.7092C2.77661 20.1951 2.51953 19.5688 2.51953 18.8305V5.1695C2.51953 4.43117 2.77661 3.80492 3.29078 3.29075C3.80495 2.77658 4.4312 2.5195 5.16953 2.5195H18.8305C19.5689 2.5195 20.1951 2.77658 20.7093 3.29075C21.2234 3.80492 21.4805 4.43117 21.4805 5.1695V18.8305C21.4805 19.5688 21.2234 20.1951 20.7093 20.7092C20.1951 21.2234 19.5689 21.4805 18.8305 21.4805H5.16953Z" fill="currentColor" />
</svg>
