<svg width="21" height="20" viewBox="0 0 21 20" fill="none" xmlns="http://www.w3.org/2000/svg">
<path d="M4.80788 17.9004C4.1926 17.9004 3.67073 17.6862 3.24226 17.2577C2.81378 16.8293 2.59955 16.3074 2.59955 15.6921V4.30794C2.59955 3.69266 2.81378 3.17079 3.24226 2.74232C3.67073 2.31384 4.1926 2.09961 4.80788 2.09961H16.192C16.8073 2.09961 17.3292 2.31384 17.7577 2.74232C18.1861 3.17079 18.4004 3.69266 18.4004 4.30794V15.6921C18.4004 16.3074 18.1861 16.8293 17.7577 17.2577C17.3292 17.6862 16.8073 17.9004 16.192 17.9004H4.80788ZM4.80788 15.6921H16.192V4.30794H4.80788V15.6921Z" fill="#737373"/>
</svg>
