<svg width="24" height="24" viewBox="0 0 24 24" fill="none" xmlns="http://www.w3.org/2000/svg">
<path d="M12.1478 12L8.4741 8.32598C8.22476 8.07681 8.1001 7.76814 8.1001 7.39998C8.1001 7.03181 8.22476 6.72314 8.4741 6.47398C8.72326 6.22464 9.03193 6.09998 9.4001 6.09998C9.76826 6.09998 10.0769 6.22464 10.3261 6.47398L14.9121 11.0597C15.0403 11.1881 15.137 11.3341 15.2023 11.4977C15.2675 11.6616 15.3001 11.829 15.3001 12C15.3001 12.171 15.2675 12.3384 15.2023 12.5022C15.137 12.6659 15.0403 12.8119 14.9121 12.9402L10.3261 17.526C10.0769 17.7753 9.76826 17.9 9.4001 17.9C9.03193 17.9 8.72326 17.7753 8.4741 17.526C8.22476 17.2768 8.1001 16.9681 8.1001 16.6C8.1001 16.2318 8.22476 15.9231 8.4741 15.674L12.1478 12Z" fill="currentColor" />
</svg>
