<svg width="24" height="24" viewBox="0 0 24 24" fill="none" xmlns="http://www.w3.org/2000/svg">
<path d="M11.2523 12L14.9261 15.674C15.1754 15.9232 15.3001 16.2318 15.3001 16.6C15.3001 16.9682 15.1754 17.2768 14.9261 17.526C14.6769 17.7753 14.3683 17.9 14.0001 17.9C13.6319 17.9 13.3233 17.7753 13.0741 17.526L8.4881 12.9403C8.35993 12.8119 8.26318 12.6659 8.19785 12.5023C8.13268 12.3384 8.1001 12.171 8.1001 12C8.1001 11.829 8.13268 11.6616 8.19785 11.4978C8.26318 11.3341 8.35993 11.1881 8.4881 11.0598L13.0741 6.47401C13.3233 6.22467 13.6319 6.10001 14.0001 6.10001C14.3683 6.10001 14.6769 6.22467 14.9261 6.47401C15.1754 6.72317 15.3001 7.03184 15.3001 7.40001C15.3001 7.76817 15.1754 8.07684 14.9261 8.32601L11.2523 12Z" fill="currentColor" />
</svg>
