<svg width="24" height="24" viewBox="0 0 24 24" fill="none" xmlns="http://www.w3.org/2000/svg">
<path d="M12.0001 15.3C11.8291 15.3 11.6617 15.2674 11.4978 15.2023C11.3342 15.1369 11.1882 15.0402 11.0598 14.912L6.4741 10.326C6.22476 10.0768 6.1001 9.76817 6.1001 9.40001C6.1001 9.03184 6.22476 8.72317 6.4741 8.47401C6.72326 8.22467 7.03193 8.10001 7.4001 8.10001C7.76826 8.10001 8.07693 8.22467 8.3261 8.47401L12.0001 12.1478L15.6741 8.47401C15.9233 8.22467 16.2319 8.10001 16.6001 8.10001C16.9683 8.10001 17.2769 8.22467 17.5261 8.47401C17.7754 8.72317 17.9001 9.03184 17.9001 9.40001C17.9001 9.76817 17.7754 10.0768 17.5261 10.326L12.9403 14.912C12.812 15.0402 12.666 15.1369 12.5023 15.2023C12.3385 15.2674 12.1711 15.3 12.0001 15.3Z" fill="currentColor" />
</svg>
