<svg width="24" height="24" viewBox="0 0 24 24" fill="none" xmlns="http://www.w3.org/2000/svg">
<path d="M12.0001 11.2522L8.3261 14.926C8.07693 15.1753 7.76826 15.3 7.4001 15.3C7.03193 15.3 6.72326 15.1753 6.4741 14.926C6.22476 14.6768 6.1001 14.3682 6.1001 14C6.1001 13.6318 6.22476 13.3232 6.4741 13.074L11.0598 8.48799C11.3258 8.22199 11.6393 8.08899 12.0001 8.08899C12.3609 8.08899 12.6743 8.22199 12.9403 8.48799L17.5261 13.074C17.7754 13.3232 17.9001 13.6318 17.9001 14C17.9001 14.3682 17.7754 14.6768 17.5261 14.926C17.2769 15.1753 16.9683 15.3 16.6001 15.3C16.2319 15.3 15.9233 15.1753 15.6741 14.926L12.0001 11.2522Z" fill="currentColor" />
</svg>
