<svg width="20" height="20" viewBox="0 0 20 20" fill="none" xmlns="http://www.w3.org/2000/svg">
<path d="M10 11.5435L6.105 15.4383C5.89736 15.6461 5.64014 15.75 5.33333 15.75C5.02653 15.75 4.76931 15.6461 4.56167 15.4383C4.35389 15.2307 4.25 14.9735 4.25 14.6667C4.25 14.3599 4.35389 14.1026 4.56167 13.895L8.45646 10L4.56167 6.105C4.35389 5.89736 4.25 5.64014 4.25 5.33333C4.25 5.02653 4.35389 4.76931 4.56167 4.56167C4.76931 4.35389 5.02653 4.25 5.33333 4.25C5.64014 4.25 5.89736 4.35389 6.105 4.56167L10 8.45646L13.895 4.56167C14.1026 4.35389 14.3599 4.25 14.6667 4.25C14.9735 4.25 15.2307 4.35389 15.4383 4.56167C15.6461 4.76931 15.75 5.02653 15.75 5.33333C15.75 5.64014 15.6461 5.89736 15.4383 6.105L11.5435 10L15.4383 13.895C15.6461 14.1026 15.75 14.3599 15.75 14.6667C15.75 14.9735 15.6461 15.2307 15.4383 15.4383C15.2307 15.6461 14.9735 15.75 14.6667 15.75C14.3599 15.75 14.1026 15.6461 13.895 15.4383L10 11.5435Z" fill="#404040"/>
</svg>
