<svg width="24" height="24" viewBox="0 0 24 24" fill="none" xmlns="http://www.w3.org/2000/svg">
<path d="M21.711 14.688L14.688 21.711C14.4289 21.9675 14.1373 22.1598 13.8133 22.288C13.4893 22.4163 13.1599 22.4805 12.825 22.4805C12.4902 22.4805 12.1608 22.4163 11.8368 22.288C11.5128 22.1598 11.2212 21.9675 10.962 21.711L2.29253 13.0412C2.05253 12.8014 1.8637 12.5212 1.72603 12.2007C1.58836 11.8801 1.51953 11.5429 1.51953 11.1892V4.15547C1.51953 3.43064 1.77761 2.81005 2.29378 2.29372C2.81011 1.77755 3.4307 1.51947 4.15553 1.51947H11.1893C11.5378 1.51947 11.8754 1.5878 12.2023 1.72447C12.5291 1.86097 12.8124 2.05389 13.0523 2.30322L21.711 10.9587C21.9769 11.2246 22.1721 11.5202 22.2968 11.8457C22.4214 12.1711 22.4838 12.5006 22.4838 12.8345C22.4838 13.1683 22.4214 13.4966 22.2968 13.8192C22.1721 14.1419 21.9769 14.4315 21.711 14.688ZM12.825 19.8305L19.8195 12.8357L11.15 4.16947H4.16953V11.1642L12.825 19.8305ZM6.63978 8.11297C7.04811 8.11297 7.3957 7.97005 7.68253 7.68422C7.96953 7.39839 8.11303 7.0513 8.11303 6.64297C8.11303 6.23464 7.97011 5.88697 7.68428 5.59997C7.39845 5.31297 7.05136 5.16947 6.64303 5.16947C6.2347 5.16947 5.88703 5.31239 5.60003 5.59822C5.31303 5.88405 5.16953 6.23122 5.16953 6.63972C5.16953 7.04805 5.31245 7.39564 5.59828 7.68247C5.88411 7.96947 6.23128 8.11297 6.63978 8.11297Z" fill="currentColor" />
</svg>
