<svg width="24" height="24" viewBox="0 0 24 24" fill="none" xmlns="http://www.w3.org/2000/svg">
<path d="M18.8305 22.4805H16.7773C16.4091 22.4805 16.0962 22.3516 15.8385 22.094C15.581 21.8363 15.4523 21.5235 15.4523 21.1555C15.4523 20.7873 15.581 20.4744 15.8385 20.2167C16.0962 19.9592 16.4091 19.8305 16.7773 19.8305H18.8305V9.99997H5.16955V12.35C5.16955 12.7181 5.0408 13.031 4.7833 13.2885C4.52563 13.5461 4.21272 13.675 3.84455 13.675C3.47655 13.675 3.16372 13.5461 2.90605 13.2885C2.64838 13.031 2.51955 12.7181 2.51955 12.35V6.16947C2.51955 5.43114 2.77663 4.80489 3.2908 4.29072C3.80497 3.77655 4.43122 3.51947 5.16955 3.51947H6.00005V2.67497C6.00005 2.35397 6.11472 2.08114 6.34405 1.85647C6.57338 1.6318 6.84855 1.51947 7.16955 1.51947C7.49055 1.51947 7.76338 1.6318 7.98805 1.85647C8.21272 2.08114 8.32505 2.35397 8.32505 2.67497V3.51947H15.675V2.67497C15.675 2.35397 15.7897 2.08114 16.019 1.85647C16.2484 1.6318 16.5235 1.51947 16.8445 1.51947C17.1655 1.51947 17.4384 1.6318 17.663 1.85647C17.8877 2.08114 18 2.35397 18 2.67497V3.51947H18.8305C19.5689 3.51947 20.1951 3.77655 20.7093 4.29072C21.2235 4.80489 21.4805 5.43114 21.4805 6.16947V19.8305C21.4805 20.5688 21.2235 21.1951 20.7093 21.7092C20.1951 22.2234 19.5689 22.4805 18.8305 22.4805ZM5.2023 20.325H11.6C11.9682 20.325 12.281 20.1961 12.5385 19.9385C12.7962 19.681 12.925 19.3681 12.925 19C12.925 18.6318 12.7962 18.319 12.5385 18.0615C12.281 17.8038 11.9682 17.675 11.6 17.675H5.2023L6.5403 16.326C6.78963 16.0768 6.91605 15.7723 6.91955 15.4125C6.92322 15.0526 6.79205 14.7398 6.52605 14.474C6.27688 14.2246 5.96821 14.1 5.60005 14.1C5.23188 14.1 4.92321 14.2246 4.67405 14.474L1.07405 18.0597C0.808048 18.3257 0.675049 18.6391 0.675049 19C0.675049 19.3608 0.808048 19.6742 1.07405 19.9402L4.67405 23.526C4.92321 23.7753 5.22772 23.9041 5.58755 23.9125C5.94738 23.9208 6.26022 23.792 6.52605 23.526C6.77538 23.2768 6.90238 22.9681 6.90705 22.6C6.91188 22.2318 6.78963 21.9231 6.5403 21.674L5.2023 20.325ZM5.16955 7.99997H18.8305V6.16947H5.16955V7.99997Z" fill="currentColor" />
</svg>
