<svg width="24" height="24" viewBox="0 0 24 24" fill="none" xmlns="http://www.w3.org/2000/svg">
<path d="M6.84439 21.4805C6.10605 21.4805 5.4798 21.2234 4.96564 20.7092C4.45147 20.1951 4.19438 19.5688 4.19438 18.8305V6.15548C3.82622 6.15548 3.51338 6.02665 3.25588 5.76898C2.99822 5.51132 2.86938 5.19848 2.86938 4.83048C2.86938 4.46231 2.99822 4.1494 3.25588 3.89173C3.51338 3.63423 3.82622 3.50548 4.19438 3.50548H8.67489C8.67489 3.13731 8.80372 2.8244 9.06139 2.56673C9.31889 2.30923 9.63172 2.18048 9.99989 2.18048H13.9716C14.3398 2.18048 14.6526 2.30923 14.9101 2.56673C15.1678 2.8244 15.2966 3.13731 15.2966 3.50548H19.8054C20.1736 3.50548 20.4864 3.63423 20.7439 3.89173C21.0016 4.1494 21.1304 4.46231 21.1304 4.83048C21.1304 5.19848 21.0016 5.51132 20.7439 5.76898C20.4864 6.02665 20.1736 6.15548 19.8054 6.15548V18.8305C19.8054 19.5688 19.5483 20.1951 19.0341 20.7092C18.52 21.2234 17.8937 21.4805 17.1554 21.4805H6.84439ZM17.1554 6.15548H6.84439V18.8305H17.1554V6.15548ZM9.91513 16.9857C10.2361 16.9857 10.509 16.8735 10.7336 16.649C10.9583 16.4243 11.0706 16.1515 11.0706 15.8305V9.14123C11.0706 8.82023 10.9583 8.5474 10.7336 8.32273C10.509 8.09806 10.2361 7.98573 9.91513 7.98573C9.59413 7.98573 9.31897 8.09806 9.08964 8.32273C8.8603 8.5474 8.74564 8.82023 8.74564 9.14123V15.8305C8.74564 16.1515 8.8603 16.4243 9.08964 16.649C9.31897 16.8735 9.59413 16.9857 9.91513 16.9857ZM14.0989 16.9857C14.4199 16.9857 14.6927 16.8735 14.9174 16.649C15.1419 16.4243 15.2541 16.1515 15.2541 15.8305V9.14123C15.2541 8.82023 15.1419 8.5474 14.9174 8.32273C14.6927 8.09806 14.4199 7.98573 14.0989 7.98573C13.7779 7.98573 13.5026 8.09806 13.2731 8.32273C13.0438 8.5474 12.9291 8.82023 12.9291 9.14123V15.8305C12.9291 16.1515 13.0438 16.4243 13.2731 16.649C13.5026 16.8735 13.7779 16.9857 14.0989 16.9857Z" fill="currentColor" />
</svg>
