<svg width="24" height="24" viewBox="0 0 24 24" fill="none" xmlns="http://www.w3.org/2000/svg">
<path d="M6.00806 18.6929V19.1929C6.00806 19.6096 5.86222 19.9638 5.57056 20.2554C5.27889 20.5471 4.92472 20.6929 4.50806 20.6929C4.09139 20.6929 3.73722 20.5471 3.44556 20.2554C3.15389 19.9638 3.00806 19.6096 3.00806 19.1929V12.0429C3.00806 11.9263 3.01639 11.8096 3.03306 11.6929C3.04972 11.5763 3.07472 11.4679 3.10806 11.3679L4.98306 6.04293C5.11639 5.64293 5.35806 5.31793 5.70806 5.06793C6.05806 4.81793 6.44972 4.69293 6.88306 4.69293H17.1331C17.5664 4.69293 17.9581 4.81793 18.3081 5.06793C18.6581 5.31793 18.8997 5.64293 19.0331 6.04293L20.9081 11.3679C20.9414 11.4679 20.9664 11.5763 20.9831 11.6929C20.9997 11.8096 21.0081 11.9263 21.0081 12.0429V19.1929C21.0081 19.6096 20.8622 19.9638 20.5706 20.2554C20.2789 20.5471 19.9247 20.6929 19.5081 20.6929C19.0914 20.6929 18.7372 20.5471 18.4456 20.2554C18.1539 19.9638 18.0081 19.6096 18.0081 19.1929V18.6929H6.00806ZM5.80806 9.69293H18.2081L17.1581 6.69293H6.85806L5.80806 9.69293ZM7.50806 15.6929C7.92472 15.6929 8.27889 15.5471 8.57056 15.2554C8.86222 14.9638 9.00806 14.6096 9.00806 14.1929C9.00806 13.7763 8.86222 13.4221 8.57056 13.1304C8.27889 12.8388 7.92472 12.6929 7.50806 12.6929C7.09139 12.6929 6.73722 12.8388 6.44556 13.1304C6.15389 13.4221 6.00806 13.7763 6.00806 14.1929C6.00806 14.6096 6.15389 14.9638 6.44556 15.2554C6.73722 15.5471 7.09139 15.6929 7.50806 15.6929ZM16.5081 15.6929C16.9247 15.6929 17.2789 15.5471 17.5706 15.2554C17.8622 14.9638 18.0081 14.6096 18.0081 14.1929C18.0081 13.7763 17.8622 13.4221 17.5706 13.1304C17.2789 12.8388 16.9247 12.6929 16.5081 12.6929C16.0914 12.6929 15.7372 12.8388 15.4456 13.1304C15.1539 13.4221 15.0081 13.7763 15.0081 14.1929C15.0081 14.6096 15.1539 14.9638 15.4456 15.2554C15.7372 15.5471 16.0914 15.6929 16.5081 15.6929Z" fill="currentColor" />
</svg>
