<svg width="24" height="24" viewBox="0 0 24 24" fill="none" xmlns="http://www.w3.org/2000/svg">
<path d="M9.77403 3.00001C9.43053 3.00001 9.14261 2.8806 8.91028 2.64176C8.67811 2.4031 8.56203 2.11385 8.56203 1.77401C8.56203 1.43401 8.67811 1.14701 8.91028 0.913013C9.14261 0.679013 9.43053 0.562012 9.77403 0.562012H14.226C14.5695 0.562012 14.8574 0.678095 15.0898 0.910262C15.3219 1.14259 15.438 1.43051 15.438 1.77401C15.438 2.11385 15.3219 2.4031 15.0898 2.64176C14.8574 2.8806 14.5695 3.00001 14.226 3.00001H9.77403ZM12 14.3958C12.3434 14.3958 12.6312 14.2796 12.8635 14.0473C13.0959 13.8149 13.212 13.5271 13.212 13.1838V9.56526C13.212 9.22193 13.0959 8.9341 12.8635 8.70176C12.6312 8.46943 12.3434 8.35326 12 8.35326C11.6567 8.35326 11.3689 8.46943 11.1365 8.70176C10.9042 8.9341 10.788 9.22193 10.788 9.56526V13.1838C10.788 13.5271 10.9042 13.8149 11.1365 14.0473C11.3689 14.2796 11.6567 14.3958 12 14.3958ZM12 22.862C10.6914 22.862 9.46286 22.6133 8.31453 22.1158C7.16636 21.6183 6.16278 20.9418 5.30378 20.0863C4.44478 19.2309 3.76595 18.2292 3.26728 17.081C2.76878 15.9328 2.51953 14.7044 2.51953 13.3958C2.51953 12.0869 2.76928 10.8587 3.26878 9.71101C3.76811 8.56318 4.44711 7.56001 5.30578 6.70151C6.16445 5.84285 7.16761 5.16376 8.31528 4.66426C9.46311 4.16493 10.6914 3.91526 12 3.91526C13.0522 3.91526 14.0721 4.08193 15.0598 4.41526C16.0474 4.7486 16.9627 5.2366 17.8055 5.87926L18.5195 5.16526C18.7594 4.92543 19.0469 4.80551 19.382 4.80551C19.7172 4.80551 20.0047 4.92543 20.2445 5.16526C20.4845 5.4051 20.6045 5.6926 20.6045 6.02776C20.6045 6.36293 20.4845 6.65043 20.2445 6.89026L19.5305 7.60426C20.1732 8.4471 20.6589 9.36001 20.9875 10.343C21.3162 11.326 21.4805 12.3436 21.4805 13.3958C21.4805 14.7044 21.2313 15.9328 20.7328 17.081C20.2341 18.2292 19.5553 19.2309 18.6963 20.0863C17.8373 20.9418 16.8337 21.6183 15.6855 22.1158C14.5372 22.6133 13.3087 22.862 12 22.862ZM12 20.212C13.8957 20.212 15.508 19.5498 16.837 18.2255C18.166 16.9013 18.8305 15.2914 18.8305 13.3958C18.8305 11.5001 18.166 9.88776 16.837 8.55876C15.508 7.22976 13.8957 6.56526 12 6.56526C10.1044 6.56526 8.49203 7.22976 7.16303 8.55876C5.83403 9.88776 5.16953 11.5001 5.16953 13.3958C5.16953 15.2914 5.83403 16.9013 7.16303 18.2255C8.49203 19.5498 10.1044 20.212 12 20.212Z" fill="currentColor" />
</svg>
