<svg width="24" height="24" viewBox="0 0 24 24" fill="none" xmlns="http://www.w3.org/2000/svg">
<path d="M5.15553 18.8305H6.59453L15.4088 10.0162L13.9978 8.59122L5.15553 17.4337V18.8305ZM3.84453 21.4805C3.47653 21.4805 3.1637 21.3516 2.90603 21.094C2.64836 20.8363 2.51953 20.5235 2.51953 20.1555V17.4195C2.51953 17.0681 2.58603 16.7316 2.71903 16.4097C2.85203 16.0881 3.0432 15.8026 3.29253 15.5532L15.6913 3.16522C15.9101 2.95355 16.1545 2.79305 16.4245 2.68372C16.6944 2.57422 16.9768 2.51947 17.2718 2.51947C17.5573 2.51947 17.8392 2.57422 18.1175 2.68372C18.3957 2.79305 18.6453 2.95714 18.8663 3.17597L20.849 5.14122C21.0679 5.35289 21.2302 5.60022 21.336 5.88322C21.4417 6.16605 21.4945 6.45139 21.4945 6.73922C21.4945 7.03405 21.4417 7.3188 21.336 7.59347C21.2302 7.86814 21.0679 8.11489 20.849 8.33372L8.47503 20.7075C8.2257 20.9568 7.9402 21.148 7.61853 21.281C7.29686 21.414 6.96028 21.4805 6.60878 21.4805H3.84453ZM14.6978 9.30222L13.9978 8.59122L15.4088 10.0162L14.6978 9.30222Z" fill="currentColor"/>
</svg>
