<svg width="24" height="24" viewBox="0 0 24 24" fill="none" xmlns="http://www.w3.org/2000/svg">
<path d="M15.6538 16.0212C15.6538 15.0154 15.2999 14.1585 14.592 13.4505C13.884 12.7426 13.0271 12.3887 12.0213 12.3887C11.0154 12.3887 10.1585 12.7426 9.45052 13.4505C8.74269 14.1585 8.38877 15.0154 8.38877 16.0212C8.38877 17.0271 8.74269 17.884 9.45052 18.592C10.1585 19.2998 11.0154 19.6537 12.0213 19.6537C13.0271 19.6537 13.884 19.2998 14.592 18.592C15.2999 17.884 15.6538 17.0271 15.6538 16.0212ZM18.3038 16.0212C18.3038 17.7727 17.6946 19.2577 16.4763 20.4762C15.2578 21.6946 13.7728 22.3037 12.0213 22.3037C10.2698 22.3037 8.78477 21.6946 7.56627 20.4762C6.34794 19.2577 5.73877 17.7727 5.73877 16.0212C5.73877 14.5024 6.20902 13.1746 7.14952 12.038C8.09002 10.9015 9.27227 10.1836 10.6963 9.88423V3.02123C10.6963 2.65306 10.8251 2.34023 11.0828 2.08273C11.3403 1.82506 11.6531 1.69623 12.0213 1.69623C12.3894 1.69623 12.7023 1.82506 12.9598 2.08273C13.2174 2.34023 13.3463 2.65306 13.3463 3.02123V9.88423C14.7703 10.1836 15.9525 10.9015 16.893 12.038C17.8335 13.1746 18.3038 14.5024 18.3038 16.0212Z" fill="currentColor" />
</svg>
