<svg width="24" height="24" viewBox="0 0 24 24" fill="none" xmlns="http://www.w3.org/2000/svg">
<path d="M11.9968 17.4805C12.3953 17.4805 12.7304 17.3456 13.0023 17.076C13.2739 16.8065 13.4098 16.4725 13.4098 16.074C13.4098 15.6753 13.275 15.3378 13.0055 15.0615C12.7359 14.785 12.4018 14.6467 12.0033 14.6467C11.6048 14.6467 11.2696 14.785 10.9978 15.0615C10.7261 15.3378 10.5903 15.6753 10.5903 16.074C10.5903 16.4725 10.725 16.8065 10.9945 17.076C11.2642 17.3456 11.5983 17.4805 11.9968 17.4805ZM12 13.0282C12.3682 13.0282 12.681 12.8994 12.9385 12.6417C13.1962 12.3842 13.325 12.0714 13.325 11.7032V8.02822C13.325 7.66005 13.1962 7.34722 12.9385 7.08972C12.681 6.83205 12.3682 6.70322 12 6.70322C11.6319 6.70322 11.319 6.83205 11.0615 7.08972C10.8039 7.34722 10.675 7.66005 10.675 8.02822V11.7032C10.675 12.0714 10.8039 12.3842 11.0615 12.6417C11.319 12.8994 11.6319 13.0282 12 13.0282ZM12 22.4805C10.5414 22.4805 9.17545 22.2058 7.90228 21.6565C6.62928 21.1071 5.52195 20.3616 4.58028 19.4197C3.63845 18.4781 2.89286 17.3707 2.34353 16.0977C1.7942 14.8246 1.51953 13.4586 1.51953 12C1.51953 10.5413 1.7942 9.17539 2.34353 7.90222C2.89286 6.62922 3.63845 5.52189 4.58028 4.58022C5.52195 3.63839 6.62928 2.8928 7.90228 2.34347C9.17545 1.79414 10.5414 1.51947 12 1.51947C13.4587 1.51947 14.8246 1.79414 16.0978 2.34347C17.3708 2.8928 18.4781 3.63839 19.4198 4.58022C20.3616 5.52189 21.1072 6.62922 21.6565 7.90222C22.2059 9.17539 22.4805 10.5413 22.4805 12C22.4805 13.4586 22.2059 14.8246 21.6565 16.0977C21.1072 17.3707 20.3616 18.4781 19.4198 19.4197C18.4781 20.3616 17.3708 21.1071 16.0978 21.6565C14.8246 22.2058 13.4587 22.4805 12 22.4805Z" fill="currentColor"/>
</svg>
