<svg width="24" height="24" viewBox="0 0 24 24" fill="none" xmlns="http://www.w3.org/2000/svg">
<path d="M12 14.1825L13.274 15.163C13.5232 15.3602 13.7868 15.3643 14.0648 15.1755C14.3426 14.9868 14.4304 14.7381 14.3283 14.4293L13.813 12.7978L15.262 11.6675C15.5112 11.4703 15.5824 11.2239 15.4755 10.9283C15.3687 10.6326 15.1562 10.4848 14.838 10.4848H13.1708L12.6305 8.82825C12.5284 8.51958 12.3182 8.36525 12 8.36525C11.6819 8.36525 11.4717 8.51958 11.3695 8.82825L10.8293 10.4848H9.13703C8.81886 10.4848 8.61053 10.6326 8.51203 10.9283C8.41353 11.2239 8.4842 11.4703 8.72403 11.6675L10.137 12.7978L9.62178 14.4685C9.51961 14.7772 9.60153 15.0235 9.86753 15.2075C10.1334 15.3917 10.3945 15.3852 10.651 15.188L12 14.1825ZM4.16953 20.4805C3.4312 20.4805 2.80495 20.2234 2.29078 19.7092C1.77661 19.1951 1.51953 18.5688 1.51953 17.8305V14.3707C1.51953 14.1874 1.57553 14.0314 1.68753 13.9028C1.79953 13.7741 1.9472 13.6931 2.13053 13.6598C2.52103 13.5453 2.8502 13.3389 3.11803 13.0408C3.3857 12.7426 3.51953 12.3957 3.51953 12C3.51953 11.595 3.3857 11.2433 3.11803 10.945C2.8502 10.6468 2.52103 10.4452 2.13053 10.3402C1.9472 10.3069 1.79953 10.2259 1.68753 10.0973C1.57553 9.96858 1.51953 9.81258 1.51953 9.62925V6.1695C1.51953 5.43117 1.77661 4.80492 2.29078 4.29075C2.80495 3.77658 3.4312 3.5195 4.16953 3.5195H19.8305C20.5689 3.5195 21.1951 3.77658 21.7093 4.29075C22.2234 4.80492 22.4805 5.43117 22.4805 6.1695V9.6435C22.4805 9.82683 22.4245 9.98042 22.3125 10.1042C22.2005 10.2282 22.0529 10.3069 21.8695 10.3402C21.479 10.4452 21.1499 10.6468 20.882 10.945C20.6144 11.2433 20.4805 11.595 20.4805 12C20.4805 12.3957 20.6144 12.7426 20.882 13.0408C21.1499 13.3389 21.479 13.5453 21.8695 13.6598C22.0529 13.6931 22.2005 13.7718 22.3125 13.8958C22.4245 14.0196 22.4805 14.1732 22.4805 14.3565V17.8305C22.4805 18.5688 22.2234 19.1951 21.7093 19.7092C21.1951 20.2234 20.5689 20.4805 19.8305 20.4805H4.16953Z" fill="currentColor" />
</svg>
