<svg width="24" height="24" viewBox="0 0 24 24" fill="none" xmlns="http://www.w3.org/2000/svg">
<path d="M9.28253 12.3782H14.7175C15.0329 12.3782 15.2972 12.2716 15.5105 12.0582C15.7239 11.8449 15.8305 11.5806 15.8305 11.2652C15.8305 10.9499 15.7239 10.6856 15.5105 10.4722C15.2972 10.2589 15.0329 10.1522 14.7175 10.1522H9.28253C8.9672 10.1522 8.70286 10.2589 8.48953 10.4722C8.2762 10.6856 8.16953 10.9499 8.16953 11.2652C8.16953 11.5806 8.2762 11.8449 8.48953 12.0582C8.70286 12.2716 8.9672 12.3782 9.28253 12.3782ZM9.28253 15.6042H14.7175C15.0329 15.6042 15.2972 15.4976 15.5105 15.2842C15.7239 15.0709 15.8305 14.8066 15.8305 14.4912C15.8305 14.1759 15.7239 13.9116 15.5105 13.6982C15.2972 13.4849 15.0329 13.3782 14.7175 13.3782H9.28253C8.9672 13.3782 8.70286 13.4849 8.48953 13.6982C8.2762 13.9116 8.16953 14.1759 8.16953 14.4912C8.16953 14.8066 8.2762 15.0709 8.48953 15.2842C8.70286 15.4976 8.9672 15.6042 9.28253 15.6042ZM9.28253 18.8305H11.7175C12.0329 18.8305 12.2972 18.7238 12.5105 18.5105C12.7239 18.2971 12.8305 18.0328 12.8305 17.7175C12.8305 17.402 12.7239 17.1376 12.5105 16.9242C12.2972 16.7109 12.0329 16.6042 11.7175 16.6042H9.28253C8.9672 16.6042 8.70286 16.7109 8.48953 16.9242C8.2762 17.1376 8.16953 17.402 8.16953 17.7175C8.16953 18.0328 8.2762 18.2971 8.48953 18.5105C8.70286 18.7238 8.9672 18.8305 9.28253 18.8305ZM6.16953 22.4805C5.4312 22.4805 4.80495 22.2234 4.29078 21.7092C3.77661 21.1951 3.51953 20.5688 3.51953 19.8305V4.16947C3.51953 3.43114 3.77661 2.80489 4.29078 2.29072C4.80495 1.77655 5.4312 1.51947 6.16953 1.51947H13.1043C13.4581 1.51947 13.7953 1.58597 14.1158 1.71897C14.4364 1.85197 14.7214 2.04314 14.9708 2.29247L19.7075 7.02922C19.9569 7.27855 20.148 7.56355 20.281 7.88422C20.414 8.20472 20.4805 8.54189 20.4805 8.89572V19.8305C20.4805 20.5688 20.2234 21.1951 19.7093 21.7092C19.1951 22.2234 18.5689 22.4805 17.8305 22.4805H6.16953ZM17.8305 8.71747H15.2773C14.7288 8.71747 14.2592 8.52214 13.8685 8.13147C13.4779 7.7408 13.2825 7.27122 13.2825 6.72272V4.16947H6.16953V19.8305H17.8305V8.71747Z" fill="currentColor"/>
</svg>
