<svg width="24" height="24" viewBox="0 0 24 24" fill="none" xmlns="http://www.w3.org/2000/svg">
<path d="M17.976 20.8717C16.8602 20.8717 15.9139 20.4833 15.137 19.7065C14.3602 18.9297 13.9718 17.9833 13.9718 16.8675C13.9718 15.7515 14.3602 14.8051 15.137 14.0282C15.9139 13.2514 16.8602 12.863 17.976 12.863C19.092 12.863 20.0384 13.2514 20.8153 14.0282C21.5921 14.8051 21.9805 15.7515 21.9805 16.8675C21.9805 17.9833 21.5921 18.9297 20.8153 19.7065C20.0384 20.4833 19.092 20.8717 17.976 20.8717ZM17.976 18.363C18.3892 18.363 18.7418 18.217 19.0338 17.925C19.3258 17.633 19.4718 17.2805 19.4718 16.8675C19.4718 16.4543 19.3258 16.1017 19.0338 15.8097C18.7418 15.5177 18.3892 15.3717 17.976 15.3717C17.563 15.3717 17.2105 15.5177 16.9185 15.8097C16.6265 16.1017 16.4805 16.4543 16.4805 16.8675C16.4805 17.2805 16.6265 17.633 16.9185 17.925C17.2105 18.217 17.563 18.363 17.976 18.363ZM10.6468 18.1925H4.27928C3.91128 18.1925 3.59845 18.0637 3.34078 17.806C3.08311 17.5483 2.95428 17.2355 2.95428 16.8675C2.95428 16.4993 3.08311 16.1864 3.34078 15.9287C3.59845 15.6712 3.91128 15.5425 4.27928 15.5425H10.6468C11.0149 15.5425 11.3278 15.6712 11.5853 15.9287C11.8429 16.1864 11.9718 16.4993 11.9718 16.8675C11.9718 17.2355 11.8429 17.5483 11.5853 17.806C11.3278 18.0637 11.0149 18.1925 10.6468 18.1925ZM6.02403 11.137C4.90803 11.137 3.96161 10.7486 3.18478 9.97173C2.40795 9.1949 2.01953 8.24848 2.01953 7.13248C2.01953 6.01665 2.40795 5.07032 3.18478 4.29348C3.96161 3.51665 4.90803 3.12823 6.02403 3.12823C7.13986 3.12823 8.0862 3.51665 8.86303 4.29348C9.63986 5.07032 10.0283 6.01665 10.0283 7.13248C10.0283 8.24848 9.63986 9.1949 8.86303 9.97173C8.0862 10.7486 7.13986 11.137 6.02403 11.137ZM6.02403 8.62823C6.43703 8.62823 6.78953 8.48223 7.08153 8.19023C7.37353 7.89823 7.51953 7.54565 7.51953 7.13248C7.51953 6.71948 7.37353 6.36698 7.08153 6.07498C6.78953 5.78298 6.43703 5.63698 6.02403 5.63698C5.61086 5.63698 5.25828 5.78298 4.96628 6.07498C4.67428 6.36698 4.52828 6.71948 4.52828 7.13248C4.52828 7.54565 4.67428 7.89823 4.96628 8.19023C5.25828 8.48223 5.61086 8.62823 6.02403 8.62823ZM19.7208 8.45748H13.3533C12.9851 8.45748 12.6723 8.32873 12.4148 8.07123C12.1571 7.81357 12.0283 7.50065 12.0283 7.13248C12.0283 6.76448 12.1571 6.45165 12.4148 6.19398C12.6723 5.93632 12.9851 5.80748 13.3533 5.80748H19.7208C20.0888 5.80748 20.4016 5.93632 20.6593 6.19398C20.9169 6.45165 21.0458 6.76448 21.0458 7.13248C21.0458 7.50065 20.9169 7.81357 20.6593 8.07123C20.4016 8.32873 20.0888 8.45748 19.7208 8.45748Z" fill="currentColor" />
</svg>
