<svg width="24" height="24" viewBox="0 0 24 24" fill="none" xmlns="http://www.w3.org/2000/svg">
<path d="M10.2946 10.4L4.27086 7.79899C3.78603 7.58733 3.49069 7.22549 3.38486 6.71349C3.27903 6.20166 3.41744 5.75441 3.80011 5.37174L4.27086 4.90099C4.44186 4.72999 4.64203 4.60649 4.87136 4.53049C5.1007 4.45433 5.33886 4.43766 5.58586 4.48049L14.5859 6.09449L17.6154 3.05424C18.0647 2.60508 18.6156 2.38049 19.2681 2.38049C19.9206 2.38049 20.4715 2.60508 20.9209 3.05424C21.37 3.50358 21.5946 4.05449 21.5946 4.70699C21.5946 5.35949 21.37 5.91041 20.9209 6.35974L17.8914 9.39999L19.4946 18.3892C19.5374 18.6362 19.5249 18.8786 19.4571 19.1162C19.3894 19.3539 19.2701 19.5582 19.0991 19.7292L18.6144 20.1892C18.2317 20.5717 17.7849 20.7119 17.2741 20.6097C16.7631 20.5076 16.4019 20.2141 16.1904 19.7292L13.6001 13.7055L11.4459 15.8347L11.9959 18.85C12.0385 19.0543 12.0302 19.2545 11.9709 19.4505C11.9114 19.6465 11.8044 19.8217 11.6501 19.976L11.1404 20.5C10.841 20.7993 10.4782 20.9169 10.0519 20.8527C9.62536 20.7886 9.30995 20.5688 9.10561 20.1935L7.25236 16.7477L3.80661 14.8945C3.43128 14.6902 3.21153 14.3747 3.14736 13.9482C3.08319 13.5219 3.20078 13.1591 3.50011 12.8597L4.00986 12.35C4.16419 12.1957 4.34178 12.0887 4.54261 12.0292C4.74328 11.9699 4.94578 11.9616 5.15011 12.0042L8.14036 12.5292L10.2946 10.4Z" fill="currentColor" />
</svg>
