<svg width="24" height="24" viewBox="0 0 24 24" fill="none" xmlns="http://www.w3.org/2000/svg">
<path d="M20.7556 5.59384C21.1163 6.0567 21.584 7.0523 21.0875 7.365C21.0875 7.365 20.2269 7.59875 19.9187 7.68375C19.6106 7.76875 18.8456 7.97062 18.75 7.97062C18.6544 7.97062 18.1149 7.94511 17.7315 7.50093C16.9212 6.56232 15.8739 5.84811 14.6905 5.4383C13.1705 4.91197 11.5166 4.91918 10.0013 5.45876C8.48596 5.99834 7.1997 7.03808 6.35447 8.40662C5.50924 9.77517 5.15548 11.3908 5.35151 12.9874C5.54754 14.5839 6.28165 16.066 7.43285 17.1894C8.58406 18.3128 10.0837 19.0105 11.6845 19.1675C13.2853 19.3244 14.8919 18.9313 16.2394 18.0529C16.9386 17.5971 17.5464 17.0247 18.0396 16.3659C18.4453 15.824 18.1067 15.0914 17.4538 14.9125C14.0771 13.9871 9.84627 12.4909 9.84627 11.0857C9.84627 10.6403 10.151 10.4174 10.6516 10.298L12.7403 11.2582L12.7079 10.803L11.3548 10.1922C11.5478 10.1784 11.7478 10.1731 11.9474 10.1731C12.695 10.1731 13.9581 10.5516 15.3551 11.1061L19.8357 9.92423C20.2544 9.8138 20.7002 9.88184 21.0669 10.1122L21.2872 10.2506C21.5023 10.3857 21.5046 10.6984 21.2915 10.8367L18.9066 12.3839C18.7694 12.4729 18.7811 12.6734 18.9298 12.7414C19.8332 13.1547 21.7018 13.9594 22.0448 14.6942C22.7982 16.5727 20.2006 19.7068 18.1773 21.0257C16.1541 22.3447 13.7419 22.935 11.3382 22.6993C8.93453 22.4636 6.68289 21.416 4.95435 19.7292C3.22582 18.0424 2.12355 15.817 1.82921 13.4199C1.53488 11.0227 2.06604 8.59673 3.33515 6.54186C4.60427 4.48699 6.5356 2.92582 8.81085 2.11564C11.0861 1.30546 13.5695 1.29462 15.8517 2.08492C17.7979 2.75886 19.4989 3.98112 20.7556 5.59384Z" fill="#E40078" />
<path d="M13.6258 16.8678L15.2971 14.9693C15.3785 14.8768 15.3405 14.7314 15.2244 14.6904L12.8378 13.8497C12.7327 13.8127 12.6204 13.8828 12.6074 13.9935L12.3982 15.7824C12.3459 16.2294 12.5863 16.6596 12.9945 16.8493L13.2183 16.9534C13.3581 17.0183 13.5239 16.9835 13.6258 16.8678Z" fill="#E40078" />
</svg>
