<svg width="24" height="24" viewBox="0 0 24 24" fill="none" xmlns="http://www.w3.org/2000/svg">
<path d="M14.0081 18.6929L19.0081 13.6929H15.0081C14.7247 13.6929 14.4872 13.7888 14.2956 13.9804C14.1039 14.1721 14.0081 14.4096 14.0081 14.6929V18.6929ZM5.00806 20.6929C4.45806 20.6929 3.98722 20.4971 3.59556 20.1054C3.20389 19.7138 3.00806 19.2429 3.00806 18.6929V4.69293C3.00806 4.14293 3.20389 3.6721 3.59556 3.28043C3.98722 2.88877 4.45806 2.69293 5.00806 2.69293H19.0081C19.5581 2.69293 20.0289 2.88877 20.4206 3.28043C20.8122 3.6721 21.0081 4.14293 21.0081 4.69293V13.8679C21.0081 14.1346 20.9581 14.3888 20.8581 14.6304C20.7581 14.8721 20.6164 15.0846 20.4331 15.2679L15.5831 20.1179C15.3997 20.3013 15.1872 20.4429 14.9456 20.5429C14.7039 20.6429 14.4497 20.6929 14.1831 20.6929H5.00806ZM8.00806 13.6929H11.0081C11.2914 13.6929 11.5289 13.5971 11.7206 13.4054C11.9122 13.2138 12.0081 12.9763 12.0081 12.6929C12.0081 12.4096 11.9122 12.1721 11.7206 11.9804C11.5289 11.7888 11.2914 11.6929 11.0081 11.6929H8.00806C7.72472 11.6929 7.48722 11.7888 7.29556 11.9804C7.10389 12.1721 7.00806 12.4096 7.00806 12.6929C7.00806 12.9763 7.10389 13.2138 7.29556 13.4054C7.48722 13.5971 7.72472 13.6929 8.00806 13.6929ZM8.00806 9.69293H16.0081C16.2914 9.69293 16.5289 9.5971 16.7206 9.40543C16.9122 9.21377 17.0081 8.97627 17.0081 8.69293C17.0081 8.4096 16.9122 8.1721 16.7206 7.98043C16.5289 7.78877 16.2914 7.69293 16.0081 7.69293H8.00806C7.72472 7.69293 7.48722 7.78877 7.29556 7.98043C7.10389 8.1721 7.00806 8.4096 7.00806 8.69293C7.00806 8.97627 7.10389 9.21377 7.29556 9.40543C7.48722 9.5971 7.72472 9.69293 8.00806 9.69293Z" fill="currentColor" />
</svg>
