<svg width="24" height="24" viewBox="0 0 24 24" fill="none" xmlns="http://www.w3.org/2000/svg">
<path d="M7.78801 7.00001C6.89818 7.00001 6.13801 6.68801 5.50751 6.06401C4.87718 5.43985 4.56201 4.68201 4.56201 3.79051C4.56201 2.89901 4.87718 2.13801 5.50751 1.50751C6.13801 0.877179 6.89818 0.562012 7.78801 0.562012C8.44284 0.562012 9.03734 0.744762 9.57151 1.11026C10.1057 1.47593 10.5036 1.95985 10.7653 2.56201H18.226C18.5695 2.56201 18.8574 2.67809 19.0898 2.91026C19.3219 3.1426 19.438 3.43051 19.438 3.77401C19.438 4.10651 19.3101 4.3741 19.0543 4.57676C18.7986 4.77926 18.5225 4.92035 18.226 5.00001H18.212V5.78801C18.212 6.13135 18.0958 6.41918 17.8635 6.65151C17.6312 6.88385 17.3433 7.00001 17 7.00001C16.6567 7.00001 16.3688 6.88385 16.1365 6.65151C15.9042 6.41918 15.788 6.13135 15.788 5.78801V5.00001H10.7653C10.5036 5.60218 10.1057 6.0861 9.57151 6.45176C9.03734 6.81726 8.44284 7.00001 7.78801 7.00001ZM7.78801 4.78801C8.07134 4.78801 8.30885 4.69218 8.50051 4.50051C8.69218 4.30885 8.78801 4.07135 8.78801 3.78801C8.78801 3.50468 8.69218 3.26718 8.50051 3.07551C8.30885 2.88385 8.07134 2.78801 7.78801 2.78801C7.50468 2.78801 7.26718 2.88385 7.07551 3.07551C6.88385 3.26718 6.78801 3.50468 6.78801 3.78801C6.78801 4.07135 6.88385 4.30885 7.07551 4.50051C7.26718 4.69218 7.50468 4.78801 7.78801 4.78801ZM9.00001 17.712C9.28335 17.712 9.52085 17.6162 9.71251 17.4245C9.90418 17.2328 10 16.9953 10 16.712C10 16.4287 9.90418 16.1912 9.71251 15.9995C9.52085 15.8078 9.28335 15.712 9.00001 15.712C8.71668 15.712 8.47918 15.8078 8.28751 15.9995C8.09585 16.1912 8.00001 16.4287 8.00001 16.712C8.00001 16.9953 8.09585 17.2328 8.28751 17.4245C8.47918 17.6162 8.71668 17.712 9.00001 17.712ZM15 17.712C15.2833 17.712 15.5208 17.6162 15.7125 17.4245C15.9042 17.2328 16 16.9953 16 16.712C16 16.4287 15.9042 16.1912 15.7125 15.9995C15.5208 15.8078 15.2833 15.712 15 15.712C14.7167 15.712 14.4792 15.8078 14.2875 15.9995C14.0958 16.1912 14 16.4287 14 16.712C14 16.9953 14.0958 17.2328 14.2875 17.4245C14.4792 17.6162 14.7167 17.712 15 17.712ZM6.00001 22.65C5.60368 22.65 5.26493 22.5094 4.98376 22.2283C4.7026 21.9471 4.56201 21.6083 4.56201 21.212V15.1935C4.56201 15.0405 4.57501 14.893 4.60101 14.751C4.62718 14.609 4.6616 14.4692 4.70426 14.3315L5.98376 10.576C6.1641 10.0442 6.4846 9.61326 6.94526 9.28326C7.40576 8.9531 7.92109 8.78801 8.49126 8.78801H15.4805C16.0552 8.78801 16.5693 8.95068 17.0228 9.27601C17.4764 9.60151 17.7982 10.0302 17.988 10.562L19.2958 14.3315C19.3479 14.4692 19.3847 14.609 19.406 14.751C19.4273 14.893 19.438 15.0405 19.438 15.1935V21.212C19.438 21.6083 19.2974 21.9471 19.0163 22.2283C18.7351 22.5094 18.3963 22.65 18 22.65C17.6037 22.65 17.2649 22.5094 16.9838 22.2283C16.7026 21.9471 16.562 21.6083 16.562 21.212V20.65H7.43801V21.212C7.43801 21.6083 7.29743 21.9471 7.01626 22.2283C6.7351 22.5094 6.39635 22.65 6.00001 22.65ZM7.65001 13.212H16.35L15.65 11.212H8.35001L7.65001 13.212Z" fill="currentColor" />
</svg>
