<svg width="24" height="24" viewBox="0 0 24 24" fill="none" xmlns="http://www.w3.org/2000/svg">
<path d="M6.7881 8.78799V2.99999C6.7881 2.65666 6.90426 2.36883 7.1366 2.13649C7.36893 1.90416 7.65676 1.78799 8.0001 1.78799C8.34343 1.78799 8.63126 1.90416 8.8636 2.13649C9.09593 2.36883 9.2121 2.65666 9.2121 2.99999V8.78799H10.2121V2.99999C10.2121 2.65666 10.3314 2.36883 10.5701 2.13649C10.8089 1.90416 11.0983 1.78799 11.4381 1.78799C11.7779 1.78799 12.0649 1.90416 12.2991 2.13649C12.5331 2.36883 12.6501 2.65666 12.6501 2.99999V8.78799C12.6501 9.84566 12.3061 10.7712 11.6181 11.5645C10.9301 12.3577 10.1281 12.8709 9.2121 13.1042V21C9.2121 21.3433 9.09593 21.6312 8.8636 21.8635C8.63126 22.0958 8.34343 22.212 8.0001 22.212C7.65676 22.212 7.36893 22.0958 7.1366 21.8635C6.90426 21.6312 6.7881 21.3433 6.7881 21V13.1042C5.8721 12.8709 5.0701 12.3577 4.3821 11.5645C3.6941 10.7712 3.3501 9.84566 3.3501 8.78799V2.99999C3.3501 2.65666 3.46943 2.36883 3.7081 2.13649C3.94693 1.90416 4.23626 1.78799 4.5761 1.78799C4.91593 1.78799 5.20293 1.90416 5.4371 2.13649C5.6711 2.36883 5.7881 2.65666 5.7881 2.99999V8.78799H6.7881ZM17.4381 14.212H15.7631C15.3951 14.212 15.0823 14.0832 14.8246 13.8255C14.5669 13.568 14.4381 13.2552 14.4381 12.887V6.99999C14.4381 5.80499 14.8885 4.63758 15.7893 3.49774C16.69 2.35791 17.6081 1.78799 18.5436 1.78799C18.9284 1.78799 19.2443 1.94233 19.4913 2.25099C19.7385 2.55983 19.8621 2.91966 19.8621 3.33049V21C19.8621 21.3433 19.7459 21.6312 19.5136 21.8635C19.2813 22.0958 18.9934 22.212 18.6501 22.212C18.3068 22.212 18.0189 22.0958 17.7866 21.8635C17.5543 21.6312 17.4381 21.3433 17.4381 21V14.212Z" fill="currentColor" />
</svg>
