<svg width="24" height="24" viewBox="0 0 24 24" fill="none" xmlns="http://www.w3.org/2000/svg">
<path d="M8.38877 7.97873C8.38877 8.98456 8.74269 9.84148 9.45052 10.5495C10.1585 11.2573 11.0154 11.6112 12.0213 11.6112C13.0271 11.6112 13.884 11.2573 14.592 10.5495C15.2999 9.84148 15.6538 8.98456 15.6538 7.97873C15.6538 6.97289 15.2999 6.11598 14.592 5.40798C13.884 4.70014 13.0271 4.34623 12.0213 4.34623C11.0154 4.34623 10.1585 4.70014 9.45052 5.40798C8.74269 6.11598 8.38877 6.97289 8.38877 7.97873ZM5.73877 7.97873C5.73877 6.22723 6.34794 4.74223 7.56627 3.52373C8.78477 2.3054 10.2698 1.69623 12.0213 1.69623C13.7728 1.69623 15.2578 2.3054 16.4763 3.52373C17.6946 4.74223 18.3038 6.22723 18.3038 7.97873C18.3038 9.49756 17.8335 10.8253 16.893 11.962C15.9525 13.0985 14.7703 13.8164 13.3463 14.1157V20.9787C13.3463 21.3469 13.2174 21.6597 12.9598 21.9172C12.7023 22.1749 12.3894 22.3037 12.0213 22.3037C11.6531 22.3037 11.3403 22.1749 11.0828 21.9172C10.8251 21.6597 10.6963 21.3469 10.6963 20.9787V14.1157C9.27227 13.8164 8.09002 13.0985 7.14952 11.962C6.20902 10.8253 5.73877 9.49756 5.73877 7.97873Z" fill="currentColor" />
</svg>
