<svg width="24" height="24" viewBox="0 0 24 24" fill="none" xmlns="http://www.w3.org/2000/svg">
<path d="M1.78801 19.65C1.44818 19.65 1.15885 19.5307 0.920012 19.292C0.681345 19.0532 0.562012 18.7638 0.562012 18.424V4.88699C0.562012 4.54349 0.681345 4.25565 0.920012 4.02349C1.15885 3.79115 1.44818 3.67499 1.78801 3.67499C2.12785 3.67499 2.41484 3.79115 2.64901 4.02349C2.88301 4.25565 3.00001 4.54349 3.00001 4.88699V14H11.212V8.32499C11.212 7.58665 11.4691 6.9604 11.9833 6.44624C12.4974 5.93207 13.1237 5.67499 13.862 5.67499H19C20.2205 5.67499 21.2653 6.10957 22.1345 6.97874C23.0035 7.84774 23.438 8.89249 23.438 10.113V18.438C23.438 18.7815 23.3219 19.0693 23.0898 19.3015C22.8574 19.5338 22.5695 19.65 22.226 19.65C21.8862 19.65 21.5969 19.5307 21.3583 19.292C21.1194 19.0532 21 18.7638 21 18.424V16.65H3.00001V18.438C3.00001 18.7815 2.88385 19.0693 2.65151 19.3015C2.41918 19.5338 2.13135 19.65 1.78801 19.65ZM7.11626 13.113C6.21926 13.113 5.45676 12.7991 4.82876 12.1712C4.20093 11.5432 3.88701 10.7807 3.88701 9.88374C3.88701 8.98657 4.20093 8.22749 4.82876 7.60649C5.45676 6.98549 6.21926 6.67499 7.11626 6.67499C8.01343 6.67499 8.77251 6.98549 9.39351 7.60649C10.0145 8.22749 10.325 8.98657 10.325 9.88374C10.325 10.7807 10.0145 11.5432 9.39351 12.1712C8.77251 12.7991 8.01343 13.113 7.11626 13.113Z" fill="currentColor" />
</svg>
