<svg width="24" height="24" viewBox="0 0 24 24" fill="none" xmlns="http://www.w3.org/2000/svg">
<path d="M13.212 11.487V8.28247C13.212 7.93914 13.0959 7.6513 12.8635 7.41897C12.6312 7.1868 12.3434 7.07072 12 7.07072C11.6567 7.07072 11.3689 7.1868 11.1365 7.41897C10.9042 7.6513 10.788 7.93914 10.788 8.28247V11.9325C10.788 12.113 10.8201 12.2826 10.8843 12.4412C10.9484 12.5999 11.0446 12.7426 11.1728 12.8695L14.2468 15.9435C14.4773 16.174 14.7577 16.2892 15.088 16.2892C15.4185 16.2892 15.7037 16.174 15.9435 15.9435C16.1834 15.713 16.3033 15.4278 16.3033 15.088C16.3033 14.7481 16.1834 14.4583 15.9435 14.2185L13.212 11.487ZM12 22.4805C10.5414 22.4805 9.17545 22.2058 7.90228 21.6565C6.62928 21.1071 5.52195 20.3616 4.58028 19.4197C3.63845 18.4781 2.89286 17.3707 2.34353 16.0977C1.7942 14.8246 1.51953 13.4586 1.51953 12C1.51953 10.5413 1.7942 9.17539 2.34353 7.90222C2.89286 6.62922 3.63845 5.52189 4.58028 4.58022C5.52195 3.63839 6.62928 2.8928 7.90228 2.34347C9.17545 1.79414 10.5414 1.51947 12 1.51947C13.4587 1.51947 14.8246 1.79414 16.0978 2.34347C17.3708 2.8928 18.4781 3.63839 19.4198 4.58022C20.3616 5.52189 21.1072 6.62922 21.6565 7.90222C22.2059 9.17539 22.4805 10.5413 22.4805 12C22.4805 13.4586 22.2059 14.8246 21.6565 16.0977C21.1072 17.3707 20.3616 18.4781 19.4198 19.4197C18.4781 20.3616 17.3708 21.1071 16.0978 21.6565C14.8246 22.2058 13.4587 22.4805 12 22.4805ZM11.9998 19.8305C14.1694 19.8305 16.017 19.0701 17.5425 17.5495C19.0679 16.0288 19.8305 14.179 19.8305 12C19.8305 9.82097 19.0679 7.97114 17.5425 6.45047C16.0172 4.9298 14.1698 4.16947 12.0003 4.16947C9.83061 4.16947 7.98303 4.9298 6.45753 6.45047C4.9322 7.97114 4.16953 9.82097 4.16953 12C4.16953 14.179 4.9322 16.0288 6.45753 17.5495C7.98286 19.0701 9.83028 19.8305 11.9998 19.8305Z" fill="currentColor" />
</svg>
