<svg width="24" height="24" viewBox="0 0 24 24" fill="none" xmlns="http://www.w3.org/2000/svg">
<path d="M3.51953 15.288V6C3.51953 4.99617 3.77461 4.19592 4.28478 3.59925C4.79495 3.00258 5.45328 2.55267 6.25978 2.2495C7.06628 1.94617 7.97462 1.74867 8.98478 1.657C9.99495 1.56533 11 1.5195 12 1.5195C13.1 1.5195 14.1611 1.56533 15.1833 1.657C16.2053 1.74867 17.1094 1.94617 17.8958 2.2495C18.6819 2.55267 19.3093 3.00258 19.7778 3.59925C20.2463 4.19592 20.4805 4.99617 20.4805 6V15.288C20.4805 16.4503 20.0912 17.4468 19.3125 18.2773C18.5339 19.1076 17.5822 19.5511 16.4575 19.6077L16.9575 20.1077C17.288 20.4381 17.3665 20.8131 17.193 21.2327C17.0194 21.6523 16.6961 21.862 16.2233 21.862C16.0853 21.862 15.955 21.8364 15.8325 21.7853C15.7102 21.7343 15.5979 21.6623 15.4958 21.5695L13.562 19.65H10.438L8.50428 21.5695C8.40211 21.6623 8.28928 21.7343 8.16578 21.7853C8.04211 21.8364 7.9137 21.862 7.78053 21.862C7.32186 21.862 7.00153 21.6523 6.81953 21.2327C6.6377 20.8131 6.71203 20.4381 7.04253 20.1077L7.54253 19.6077C6.41786 19.5511 5.4662 19.1076 4.68753 18.2773C3.90886 17.4468 3.51953 16.4503 3.51953 15.288ZM6.16953 10.1695H11V7.1695H6.16953V10.1695ZM13 10.1695H17.8305V7.1695H13V10.1695ZM8.58478 16.0848C9.01812 16.0848 9.37645 15.9431 9.65978 15.6598C9.94312 15.3764 10.0848 15.0181 10.0848 14.5848C10.0848 14.1514 9.94312 13.7931 9.65978 13.5098C9.37645 13.2264 9.01812 13.0848 8.58478 13.0848C8.15145 13.0848 7.79312 13.2264 7.50978 13.5098C7.22645 13.7931 7.08478 14.1514 7.08478 14.5848C7.08478 15.0181 7.22645 15.3764 7.50978 15.6598C7.79312 15.9431 8.15145 16.0848 8.58478 16.0848ZM15.4153 16.0848C15.8486 16.0848 16.2069 15.9431 16.4903 15.6598C16.7736 15.3764 16.9153 15.0181 16.9153 14.5848C16.9153 14.1514 16.7736 13.7931 16.4903 13.5098C16.2069 13.2264 15.8486 13.0848 15.4153 13.0848C14.9819 13.0848 14.6236 13.2264 14.3403 13.5098C14.0569 13.7931 13.9153 14.1514 13.9153 14.5848C13.9153 15.0181 14.0569 15.3764 14.3403 15.6598C14.6236 15.9431 14.9819 16.0848 15.4153 16.0848Z" fill="currentColor" />
</svg>
