<svg width="24" height="24" viewBox="0 0 24 24" fill="none" xmlns="http://www.w3.org/2000/svg">
<path d="M11 14.6412V17.887C11 18.1703 11.0959 18.4078 11.2875 18.5995C11.4792 18.7911 11.7167 18.887 12 18.887C12.2834 18.887 12.5209 18.7911 12.7125 18.5995C12.9042 18.4078 13 18.1703 13 17.887V14.6412L13.9243 15.5655C14.0269 15.6681 14.1384 15.7421 14.2588 15.7875C14.3791 15.8328 14.5041 15.8536 14.6338 15.85C14.7634 15.8463 14.8866 15.8206 15.0033 15.773C15.1199 15.7253 15.2283 15.6539 15.3283 15.5587C15.5116 15.3681 15.6051 15.1347 15.6088 14.8587C15.6124 14.5826 15.5189 14.3492 15.3283 14.1587L12.9403 11.7707C12.8119 11.6424 12.6686 11.5456 12.5103 11.4805C12.3518 11.4151 12.182 11.3825 12.001 11.3825C11.8199 11.3825 11.6498 11.4151 11.4908 11.4805C11.3318 11.5456 11.1881 11.6424 11.0598 11.7707L8.67178 14.1587C8.47178 14.3612 8.37595 14.5976 8.38428 14.8677C8.39261 15.1377 8.49678 15.3703 8.69678 15.5655C8.89678 15.7443 9.13245 15.8331 9.40378 15.832C9.67511 15.831 9.90611 15.7351 10.0968 15.5445L11 14.6412ZM6.16953 22.4805C5.4312 22.4805 4.80495 22.2234 4.29078 21.7092C3.77661 21.1951 3.51953 20.5688 3.51953 19.8305V4.16947C3.51953 3.43114 3.77661 2.80489 4.29078 2.29072C4.80495 1.77655 5.4312 1.51947 6.16953 1.51947H13.1043C13.4581 1.51947 13.7953 1.58597 14.1158 1.71897C14.4364 1.85197 14.7214 2.04314 14.9708 2.29247L19.7075 7.02922C19.9569 7.27855 20.148 7.56355 20.281 7.88422C20.414 8.20472 20.4805 8.54189 20.4805 8.89572V19.8305C20.4805 20.5688 20.2234 21.1951 19.7093 21.7092C19.1951 22.2234 18.5689 22.4805 17.8305 22.4805H6.16953ZM12.8305 7.84447V4.16947H6.16953V19.8305H17.8305V9.16947H14.1555C13.7874 9.16947 13.4744 9.04072 13.2168 8.78322C12.9593 8.52555 12.8305 8.21264 12.8305 7.84447Z" fill="currentColor" />
</svg>
