<svg width="24" height="24" viewBox="0 0 24 24" fill="none" xmlns="http://www.w3.org/2000/svg">
<path d="M0.562012 17.412C0.562012 16.7577 0.732262 16.1562 1.07276 15.6077C1.41343 15.0594 1.86601 14.6409 2.43051 14.3522C3.49201 13.8261 4.57476 13.4292 5.67876 13.1615C6.78276 12.8937 7.90401 12.7597 9.04251 12.7597C10.199 12.7597 11.3294 12.8912 12.4338 13.1542C13.5381 13.4174 14.6116 13.812 15.6543 14.338C16.2188 14.6253 16.6713 15.0419 17.012 15.5877C17.3525 16.1336 17.5228 16.7417 17.5228 17.412V18.0707C17.5228 18.8091 17.2658 19.4353 16.7518 19.9495C16.2376 20.4637 15.6113 20.7207 14.8728 20.7207H3.21201C2.47351 20.7207 1.84726 20.4637 1.33326 19.9495C0.819095 19.4353 0.562012 18.8091 0.562012 18.0707V17.412ZM20.788 20.7207H18.676C18.963 20.3359 19.1759 19.9185 19.3148 19.4685C19.4534 19.0185 19.5228 18.5526 19.5228 18.0707V17.325C19.5228 16.5257 19.3186 15.7249 18.9103 14.9227C18.5019 14.1206 17.8568 13.4355 16.975 12.8675C17.759 12.9768 18.5378 13.1641 19.3115 13.4292C20.085 13.6946 20.792 13.9975 21.4325 14.338C22.0703 14.6713 22.564 15.0954 22.9135 15.6102C23.2632 16.1251 23.438 16.6872 23.438 17.2967V18.0707C23.438 18.8091 23.1809 19.4353 22.6668 19.9495C22.1528 20.4637 21.5265 20.7207 20.788 20.7207ZM9.04251 11.7597C7.86701 11.7597 6.86643 11.3469 6.04076 10.5212C5.2151 9.6954 4.80226 8.69482 4.80226 7.51949C4.80226 6.34415 5.2151 5.34365 6.04076 4.51799C6.86643 3.69215 7.86701 3.27924 9.04251 3.27924C10.2178 3.27924 11.2183 3.69215 12.044 4.51799C12.8697 5.34365 13.2825 6.34415 13.2825 7.51949C13.2825 8.69482 12.8697 9.6954 12.044 10.5212C11.2183 11.3469 10.2178 11.7597 9.04251 11.7597ZM19.7348 7.51949C19.7348 8.68549 19.3198 9.68365 18.49 10.514C17.66 11.3445 16.6623 11.7597 15.4968 11.7597C15.3026 11.7597 15.0685 11.7366 14.7945 11.6902C14.5207 11.6439 14.2733 11.5863 14.0523 11.5175C14.5211 10.9652 14.8787 10.3459 15.125 9.65974C15.3713 8.9734 15.4945 8.26074 15.4945 7.52174C15.4945 6.78257 15.3713 6.06915 15.125 5.38149C14.8787 4.69382 14.5211 4.0739 14.0523 3.52174C14.2949 3.4289 14.5329 3.36532 14.7663 3.33099C14.9996 3.29649 15.2402 3.27924 15.488 3.27924C16.6558 3.27924 17.6556 3.6944 18.4873 4.52474C19.3189 5.35507 19.7348 6.35332 19.7348 7.51949ZM3.21201 18.0707H14.8728V17.4825C14.8728 17.3083 14.8269 17.15 14.7353 17.0075C14.6436 16.865 14.5228 16.7542 14.3728 16.675C13.5293 16.2627 12.6633 15.9487 11.775 15.7332C10.8867 15.5176 9.97585 15.4097 9.04251 15.4097C8.12801 15.4097 7.2171 15.5176 6.30976 15.7332C5.4026 15.9487 4.53668 16.2627 3.71201 16.675C3.56201 16.7542 3.44118 16.865 3.34951 17.0075C3.25785 17.15 3.21201 17.3083 3.21201 17.4825V18.0707ZM9.04026 9.32174C9.53509 9.32174 9.95951 9.14549 10.3135 8.79299C10.6675 8.44049 10.8445 8.01674 10.8445 7.52174C10.8445 7.02674 10.6683 6.60224 10.3158 6.24824C9.96326 5.8944 9.53959 5.71749 9.04476 5.71749C8.54976 5.71749 8.12526 5.89365 7.77126 6.24599C7.41726 6.59849 7.24026 7.02224 7.24026 7.51724C7.24026 8.01224 7.41651 8.43674 7.76901 8.79074C8.12151 9.14474 8.54526 9.32174 9.04026 9.32174Z" fill="currentColor" />
</svg>
