<svg width="24" height="24" viewBox="0 0 24 24" fill="none" xmlns="http://www.w3.org/2000/svg">
<path d="M10.9081 14.5929L9.28306 21.8929C9.23306 22.1263 9.11222 22.3179 8.92056 22.4679C8.72889 22.6179 8.50806 22.6929 8.25806 22.6929C7.92472 22.6929 7.65806 22.5679 7.45806 22.3179C7.25806 22.0679 7.19139 21.7846 7.25806 21.4679L9.80806 8.59293L8.00806 9.29293V11.6929C8.00806 11.9763 7.91222 12.2138 7.72056 12.4054C7.52889 12.5971 7.29139 12.6929 7.00806 12.6929C6.72472 12.6929 6.48722 12.5971 6.29556 12.4054C6.10389 12.2138 6.00806 11.9763 6.00806 11.6929V8.64293C6.00806 8.44293 6.06222 8.26377 6.17056 8.10543C6.27889 7.9471 6.42472 7.82627 6.60806 7.74293L11.0581 5.84293C11.2914 5.74293 11.5372 5.6846 11.7956 5.66793C12.0539 5.65127 12.2997 5.6846 12.5331 5.76793C12.7664 5.85127 12.9872 5.96793 13.1956 6.11793C13.4039 6.26793 13.5747 6.4596 13.7081 6.69293L14.7081 8.29293C14.9247 8.62627 15.1789 8.94293 15.4706 9.24293C15.7622 9.54293 16.0914 9.80127 16.4581 10.0179C16.6914 10.1513 16.9497 10.2721 17.2331 10.3804C17.5164 10.4888 17.7997 10.5679 18.0831 10.6179C18.3497 10.6679 18.5706 10.7888 18.7456 10.9804C18.9206 11.1721 19.0081 11.4096 19.0081 11.6929C19.0081 11.9763 18.9081 12.2096 18.7081 12.3929C18.5081 12.5763 18.2664 12.6513 17.9831 12.6179C17.0497 12.4846 16.2122 12.1929 15.4706 11.7429C14.7289 11.2929 14.0831 10.7513 13.5331 10.1179L12.9081 13.1929L14.7081 14.8929C14.8081 14.9929 14.8831 15.1054 14.9331 15.2304C14.9831 15.3554 15.0081 15.4846 15.0081 15.6179V21.6929C15.0081 21.9763 14.9122 22.2138 14.7206 22.4054C14.5289 22.5971 14.2914 22.6929 14.0081 22.6929C13.7247 22.6929 13.4872 22.5971 13.2956 22.4054C13.1039 22.2138 13.0081 21.9763 13.0081 21.6929V16.1929L10.9081 14.5929ZM13.5081 5.19293C12.9581 5.19293 12.4872 4.9971 12.0956 4.60543C11.7039 4.21377 11.5081 3.74293 11.5081 3.19293C11.5081 2.64293 11.7039 2.1721 12.0956 1.78043C12.4872 1.38877 12.9581 1.19293 13.5081 1.19293C14.0581 1.19293 14.5289 1.38877 14.9206 1.78043C15.3122 2.1721 15.5081 2.64293 15.5081 3.19293C15.5081 3.74293 15.3122 4.21377 14.9206 4.60543C14.5289 4.9971 14.0581 5.19293 13.5081 5.19293Z" fill="currentColor" />
</svg>
